<svg width="560" height="93" viewBox="0 0 560 93" fill="none" xmlns="http://www.w3.org/2000/svg">
<path d="M43.375 0.75C52 0.75 58.8333 2.60417 63.875 6.3125C68.9583 10.0208 71.5 15.5417 71.5 22.875C71.5 33.7083 66.3958 40.75 56.1875 44C62.1458 45.7083 66.6667 48.3125 69.75 51.8125C72.875 55.3125 74.4375 59.5417 74.4375 64.5C74.4375 82.1667 63.3542 91 41.1875 91H0.5V80.125L10.0625 76.25V16.125L0.5 12.25V1.375L29.9375 0.75H43.375ZM37.375 37.625C42.0417 37.625 45.5833 36.625 48 34.625C50.4583 32.625 51.6875 29.6667 51.6875 25.75C51.6875 22.5833 50.6875 20.1875 48.6875 18.5625C46.6875 16.9375 44.0625 16.125 40.8125 16.125H29.9375V37.625H37.375ZM40.5625 75.625C44.9792 75.625 48.3542 74.6667 50.6875 72.75C53.0625 70.8333 54.25 68.0833 54.25 64.5C54.25 59.875 52.875 56.4792 50.125 54.3125C47.4167 52.1458 43.1667 51.0625 37.375 51.0625H29.9375V75.625H40.5625ZM104.688 60.6875C105.021 65.8125 106.562 69.8125 109.312 72.6875C112.104 75.5208 115.729 76.9375 120.188 76.9375C123.354 76.9375 126.521 76.5 129.688 75.625C132.896 74.7083 135.542 73.7917 137.625 72.875C139.75 71.9167 141.104 71.25 141.688 70.875L147.188 81.5C147.188 81.6667 145.688 82.7292 142.688 84.6875C139.729 86.6042 136.083 88.3542 131.75 89.9375C127.458 91.4792 122.875 92.25 118 92.25C107.167 92.25 98.9167 89.25 93.25 83.25C87.5833 77.25 84.75 68.75 84.75 57.75C84.75 50.3333 86.1042 43.8333 88.8125 38.25C91.5625 32.625 95.5 28.2917 100.625 25.25C105.75 22.1667 111.833 20.625 118.875 20.625C128.25 20.625 135.438 23.3125 140.438 28.6875C145.438 34.0625 147.938 41.3958 147.938 50.6875C147.938 52.7292 147.833 54.7083 147.625 56.625C147.417 58.5417 147.271 59.75 147.188 60.25L104.688 60.6875ZM117.625 35.9375C114.125 35.9375 111.271 37.125 109.062 39.5C106.854 41.8333 105.479 44.9167 104.938 48.75H128.125C128.125 44.9167 127.271 41.8333 125.562 39.5C123.854 37.125 121.208 35.9375 117.625 35.9375ZM198.312 82.6875C198.312 82.8542 197.208 83.7917 195 85.5C192.792 87.2083 190.146 88.7708 187.062 90.1875C183.979 91.5625 180.812 92.25 177.562 92.25C171.312 92.25 166.417 90.5208 162.875 87.0625C159.375 83.5625 157.625 78.6042 157.625 72.1875C157.625 64.8542 160.25 59.5 165.5 56.125C170.75 52.75 178.396 51.0625 188.438 51.0625H197.438V44C197.438 37.75 194.146 34.6458 187.562 34.6875C185.604 34.6875 183.792 34.8333 182.125 35.125C180.458 35.4167 179.125 35.7292 178.125 36.0625C177.167 36.3542 176.562 36.5417 176.312 36.625L174.375 44.6875H162.875L162 25.75C162.75 25.5 164.583 24.9583 167.5 24.125C170.458 23.2917 173.979 22.5 178.062 21.75C182.188 21 186.083 20.625 189.75 20.625C196.333 20.625 201.562 21.4583 205.438 23.125C209.312 24.75 212.146 27.4167 213.938 31.125C215.729 34.7917 216.625 39.7292 216.625 45.9375V77.5625L226.25 79.875V90.125L200.625 91L198.312 82.6875ZM176.188 70.25C176.188 72.75 176.833 74.6667 178.125 76C179.458 77.2917 181.333 77.9375 183.75 77.9375C185.792 77.9375 187.812 77.3958 189.812 76.3125C191.812 75.1875 193.5 74.0417 194.875 72.875C196.25 71.6667 197.104 70.875 197.438 70.5V61.9375H190.125C185.167 61.9375 181.604 62.6042 179.438 63.9375C177.271 65.2708 176.188 67.375 176.188 70.25ZM262.125 92.25C255.208 92.25 250.312 90.1042 247.438 85.8125C244.604 81.5208 243.188 75.3542 243.188 67.3125V37.875H231.312V25.4375L243.188 23.8125V6.125L262.375 2.6875V23.8125H280.312V37.875H262.375V66.0625C262.375 70.3125 262.833 73.2917 263.75 75C264.708 76.7083 266.521 77.5625 269.188 77.5625C270.729 77.5625 272.521 77.2292 274.562 76.5625C276.604 75.8542 278.188 75.2083 279.312 74.625L283.875 84.375C276.708 89.6667 269.458 92.2917 262.125 92.25Z" fill="#028CC6"/>
<path d="M301.125 11.625L290.25 9.0625V2.0625L313.938 1.375H328.625C337 1.375 343.688 3.27083 348.688 7.0625C353.688 10.8125 356.188 16.3958 356.188 23.8125C356.188 34.8125 350.625 41.7292 339.5 44.5625C346.083 46.1042 351.042 48.6667 354.375 52.25C357.708 55.7917 359.375 60.1667 359.375 65.375C359.375 74.1667 356.625 80.6458 351.125 84.8125C345.625 88.9375 337.5 91 326.75 91H290.25V83.3125L301.125 80.75V11.625ZM323.5 39.8125C329.5 39.8125 334.208 38.6042 337.625 36.1875C341.042 33.7292 342.75 30.0208 342.75 25.0625C342.75 20.7292 341.375 17.4167 338.625 15.125C335.917 12.7917 332.375 11.625 328 11.625H313.938V39.8125H323.5ZM327.375 80.75C333.417 80.75 338.021 79.5 341.188 77C344.354 74.4583 345.938 70.8125 345.938 66.0625C345.938 59.9375 344.062 55.625 340.312 53.125C336.562 50.625 330.958 49.375 323.5 49.375H313.938V80.75H327.375ZM403.5 21.875C412.958 21.875 420.333 24.9375 425.625 31.0625C430.917 37.1458 433.562 45.3958 433.562 55.8125C433.562 62.9792 432.229 69.3333 429.562 74.875C426.938 80.4167 423.188 84.7083 418.312 87.75C413.479 90.75 407.896 92.25 401.562 92.25C391.854 92.25 384.312 89.3333 378.938 83.5C373.562 77.6667 370.875 69.0833 370.875 57.75C370.875 50.5833 372.25 44.2917 375 38.875C377.792 33.4167 381.646 29.2292 386.562 26.3125C391.479 23.3542 397.125 21.875 403.5 21.875ZM402.875 32.125C396.542 32.125 391.854 34.2083 388.812 38.375C385.812 42.5 384.312 48.7292 384.312 57.0625C384.312 73.6875 390.292 82.0208 402.25 82.0625C408.5 82.0625 413.042 79.9375 415.875 75.6875C418.708 71.3958 420.125 64.9792 420.125 56.4375C420.125 40.2292 414.375 32.125 402.875 32.125ZM448.375 27C449.042 26.75 450.708 26.2292 453.375 25.4375C456.083 24.6042 459.271 23.8125 462.938 23.0625C466.604 22.2708 470.062 21.875 473.312 21.875C481.062 21.875 486.938 23.4167 490.938 26.5C494.979 29.5833 497 34.6667 497 41.75V80.75L507.25 83.3125V90.375L487.375 91L484.688 82.0625C481.938 84.8125 478.75 87.2083 475.125 89.25C471.542 91.25 467.729 92.25 463.688 92.25C457.646 92.25 452.938 90.5833 449.562 87.25C446.188 83.875 444.5 79.1458 444.5 73.0625C444.5 65.9792 447.042 60.9167 452.125 57.875C457.208 54.7917 464.479 53.25 473.938 53.25H484.188V43C484.188 39.25 483.146 36.3958 481.062 34.4375C478.979 32.4792 475.958 31.5 472 31.5C469.708 31.5 467.604 31.6458 465.688 31.9375C463.771 32.2292 462.25 32.5208 461.125 32.8125C460.042 33.1042 459.375 33.2917 459.125 33.375L457.312 43H449L448.375 27ZM475.25 61.5625C468.917 61.5625 464.375 62.4167 461.625 64.125C458.917 65.8333 457.562 68.6042 457.562 72.4375C457.562 75.3542 458.396 77.6875 460.062 79.4375C461.729 81.1875 464.021 82.0625 466.938 82.0625C469.771 82.0625 472.458 81.2917 475 79.75C477.542 78.2083 479.708 76.5417 481.5 74.75C483.292 72.9583 484.188 71.9792 484.188 71.8125V61.5625H475.25ZM557.875 33.375H539.312V74.5C539.312 79.7083 541.438 82.3125 545.688 82.3125C548.438 82.3125 551.771 81.25 555.688 79.125L559.125 85.875C553.333 90.125 547.354 92.25 541.188 92.25C536.854 92.25 533.312 90.8333 530.562 88C527.854 85.125 526.5 80.375 526.5 73.75V33.375H513.688V25.0625L526.5 23.8125V7.6875L539.312 5.125V23.8125H557.875V33.375Z" fill="black"/>
</svg>
